<svg width="29" height="24" viewBox="0 0 29 24" fill="none" xmlns="http://www.w3.org/2000/svg">
<path d="M25.9464 0.53949C25.9464 0.53949 28.5366 -0.47051 28.3207 1.98235C28.2488 2.99236 27.6012 6.52736 27.0976 10.351L25.3708 21.6774C25.3708 21.6774 25.2269 23.3367 23.9318 23.6253C22.6366 23.9138 20.694 22.6153 20.3342 22.3267C20.0464 22.1103 14.938 18.8638 13.1392 17.2767C12.6356 16.8438 12.06 15.9781 13.2112 14.9681L20.766 7.75383C21.6294 6.8881 22.4928 4.8681 18.8952 7.32096L8.82223 14.1746C8.82223 14.1746 7.67103 14.896 5.51256 14.2467L0.835777 12.8038C0.835777 12.8038 -0.89103 11.7217 2.05893 10.6395C9.25396 7.24876 18.1038 3.7859 25.9464 0.53949Z" fill="white"/>
</svg>
